<?xml version="1.0" encoding="iso-8859-1"?>
<!-- Generator: Adobe Illustrator 19.0.0, SVG Export Plug-In . SVG Version: 6.00 Build 0)  -->
<svg version="1.1" id="Layer_1" xmlns="http://www.w3.org/2000/svg" xmlns:xlink="http://www.w3.org/1999/xlink" x="0px" y="0px"
	 viewBox="0 0 512 512" style="enable-background:new 0 0 512 512;" xml:space="preserve">
<path style="fill:#5E6A72;" d="M217.624,390.57v103.01c0,10.174,8.246,18.42,18.42,18.42h39.912c10.173,0,18.421-8.246,18.421-18.42
	V390.57C269.145,395.522,242.879,395.526,217.624,390.57z"/>
<path style="fill:#384047;" d="M256.001,493.58v-99.296c-0.001,0-0.001,0-0.001,0c-13.13,0-25.96-1.278-38.376-3.715v103.01
	c0,10.174,8.246,18.42,18.42,18.42h38.376C264.246,512,256.001,503.754,256.001,493.58z"/>
<g>
	<path style="fill:#DB3A3A;" d="M135.678,152.802C154.592,104.858,201.336,68.873,256,68.873s101.408,35.984,120.322,83.929h72.122
		C427.187,66.263,349.097,0,256,0S84.813,66.263,63.556,152.802H135.678z"/>
	<path style="fill:#DB3A3A;" d="M376.322,243.544c-18.915,47.944-65.658,83.928-120.322,83.928s-101.408-35.984-120.322-83.928
		H63.556c21.257,86.539,99.346,152.8,192.444,152.8s171.187-66.262,192.445-152.8L376.322,243.544L376.322,243.544z"/>
</g>
<g>
	<path style="fill:#C93F3F;" d="M268.878,0.426C264.62,0.145,260.327,0,256,0C162.903,0,84.813,66.263,63.556,152.802h25.756
		C109.581,70.284,181.524,6.204,268.878,0.426z"/>
	<path style="fill:#C93F3F;" d="M89.312,243.544H63.556c22.31,90.828,107.009,158.855,205.322,152.375
		C181.524,390.141,109.581,326.061,89.312,243.544z"/>
</g>
<path style="fill:#305A84;" d="M496.546,230.01c0,8.612-6.982,15.595-15.594,15.595H31.047c-8.611,0-15.594-6.982-15.594-15.595
	v-63.675c0-8.611,6.982-15.593,15.594-15.593h449.906c8.611,0,15.594,6.982,15.594,15.593v63.675H496.546z"/>
<path style="fill:#224772;" d="M480.953,200.234H31.047c-8.611,0-15.594-6.982-15.594-15.595v45.371
	c0,8.612,6.982,15.595,15.594,15.595h449.906c8.611,0,15.594-6.982,15.594-15.595v-45.371
	C496.546,193.252,489.564,200.234,480.953,200.234z"/>
<g>
</g>
<g>
</g>
<g>
</g>
<g>
</g>
<g>
</g>
<g>
</g>
<g>
</g>
<g>
</g>
<g>
</g>
<g>
</g>
<g>
</g>
<g>
</g>
<g>
</g>
<g>
</g>
<g>
</g>
</svg>
